<svg width="190" height="84" viewBox="0 0 190 84" fill="none" xmlns="http://www.w3.org/2000/svg">
<rect x="1" y="1" width="188" height="82" rx="5" stroke="#82BA01" stroke-width="2"/>
<path d="M41.9428 34V40.8305H32.7138V69H24.229V40.8305H15V34H41.9428Z" fill="#82BA01"/>
<path d="M59.2507 34C62.9224 34 66.1311 34.7312 68.8766 36.1937C71.6222 37.6562 73.7392 39.717 75.2278 42.3761C76.7494 45.0019 77.5102 48.0432 77.5102 51.5C77.5102 54.9236 76.7494 57.9649 75.2278 60.6239C73.7392 63.283 71.6056 65.3438 68.827 66.8063C66.0815 68.2688 62.8893 69 59.2507 69H46.201V34H59.2507ZM58.7049 61.6211C61.9135 61.6211 64.411 60.7403 66.1972 58.9786C67.9835 57.217 68.8766 54.7241 68.8766 51.5C68.8766 48.2759 67.9835 45.7664 66.1972 43.9715C64.411 42.1766 61.9135 41.2792 58.7049 41.2792H54.6858V61.6211H58.7049Z" fill="#82BA01"/>
<path d="M103.935 62.8177H90.9351L88.8511 69H79.9694L92.5725 34H102.397L115 69H106.019L103.935 62.8177ZM101.752 56.2365L97.4351 43.4231L93.1679 56.2365H101.752Z" fill="#82BA01"/>
</svg>
