<svg width="48" height="48" viewBox="0 0 48 48" fill="none" xmlns="http://www.w3.org/2000/svg">
<circle cx="24" cy="24" r="24" fill="#F9F9F9"/>
<path d="M34.0001 27.92V30.92C34.0012 31.1985 33.9441 31.4741 33.8326 31.7293C33.721 31.9845 33.5574 32.2136 33.3521 32.4018C33.1469 32.5901 32.9046 32.7335 32.6408 32.8227C32.377 32.9119 32.0974 32.945 31.8201 32.92C28.7429 32.5856 25.7871 31.5341 23.1901 29.85C20.7739 28.3146 18.7254 26.2661 17.1901 23.85C15.5 21.2412 14.4483 18.271 14.1201 15.18C14.0951 14.9034 14.1279 14.6247 14.2166 14.3616C14.3052 14.0985 14.4476 13.8567 14.6348 13.6516C14.822 13.4465 15.0499 13.2827 15.3038 13.1705C15.5578 13.0583 15.8324 13.0002 16.1101 13H19.1101C19.5954 12.9952 20.0658 13.1671 20.4338 13.4835C20.8018 13.8 21.0421 14.2394 21.1101 14.72C21.2367 15.68 21.4715 16.6227 21.8101 17.53C21.9446 17.8879 21.9737 18.2769 21.894 18.6509C21.8142 19.0248 21.6289 19.3681 21.3601 19.64L20.0901 20.91C21.5136 23.4135 23.5865 25.4864 26.0901 26.91L27.3601 25.64C27.6319 25.3711 27.9752 25.1858 28.3492 25.1061C28.7231 25.0263 29.1121 25.0554 29.4701 25.19C30.3773 25.5285 31.32 25.7634 32.2801 25.89C32.7658 25.9585 33.2095 26.2032 33.5266 26.5775C33.8437 26.9518 34.0122 27.4296 34.0001 27.92Z" stroke="#82BA01" stroke-width="2" stroke-linecap="round" stroke-linejoin="round"/>
</svg>
