<svg width="48" height="48" viewBox="0 0 48 48" fill="none" xmlns="http://www.w3.org/2000/svg">
<g clip-path="url(#clip0_22_12)">
<path d="M41.2109 37.2881C40.3975 37.2887 39.6022 37.048 38.9256 36.5965C38.249 36.1451 37.7215 35.5031 37.4098 34.7518C37.0981 34.0004 37.0163 33.1736 37.1746 32.3757C37.3329 31.5779 37.7243 30.8449 38.2993 30.2695C38.8742 29.6942 39.6069 29.3022 40.4046 29.1433C41.2024 28.9844 42.0293 29.0657 42.7808 29.3768C43.5324 29.6879 44.1748 30.215 44.6267 30.8913C45.0787 31.5676 45.3199 32.3627 45.3199 33.1761C45.3194 34.266 44.8864 35.3111 44.116 36.0821C43.3457 36.853 42.3008 37.2868 41.2109 37.2881ZM41.2109 30.5641C40.6942 30.5635 40.1889 30.7162 39.759 31.0028C39.329 31.2895 38.9938 31.6972 38.7956 32.1744C38.5975 32.6517 38.5453 33.1769 38.6458 33.6838C38.7462 34.1907 38.9948 34.6564 39.3599 35.022C39.7251 35.3876 40.1905 35.6367 40.6973 35.7377C41.204 35.8387 41.7294 35.7872 42.2068 35.5895C42.6843 35.3919 43.0924 35.0572 43.3795 34.6275C43.6667 34.1979 43.8199 33.6928 43.8199 33.1761C43.8197 32.4839 43.5448 31.8202 43.0557 31.3305C42.5665 30.8408 41.9031 30.5651 41.2109 30.5641Z" fill="#6701BA"/>
<path d="M19.542 37.2881C18.7286 37.2889 17.9332 37.0484 17.2564 36.597C16.5797 36.1457 16.052 35.5038 15.7402 34.7525C15.4283 34.0012 15.3463 33.1742 15.5046 32.3763C15.6628 31.5784 16.0541 30.8454 16.629 30.2699C17.2039 29.6944 17.9366 29.3024 18.7343 29.1434C19.5321 28.9844 20.3591 29.0656 21.1107 29.3767C21.8623 29.6878 22.5047 30.2149 22.9568 30.8912C23.4088 31.5675 23.65 32.3626 23.65 33.1761C23.6492 34.2657 23.2163 35.3106 22.4462 36.0814C21.6761 36.8523 20.6317 37.2862 19.542 37.2881ZM19.542 30.5641C19.0253 30.5633 18.5199 30.7158 18.0898 31.0023C17.6597 31.2889 17.3243 31.6965 17.126 32.1737C16.9277 32.651 16.8754 33.1763 16.9757 33.6832C17.0761 34.1901 17.3245 34.6559 17.6896 35.0216C18.0548 35.3873 18.5202 35.6365 19.027 35.7376C19.5338 35.8387 20.0592 35.7872 20.5367 35.5896C21.0142 35.3921 21.4224 35.0573 21.7095 34.6276C21.9967 34.198 22.15 33.6929 22.15 33.1761C22.1495 32.4842 21.8747 31.8207 21.3858 31.3311C20.897 30.8415 20.2339 30.5657 19.542 30.5641Z" fill="#6701BA"/>
<path d="M46.6209 33.9261H44.5699C44.371 33.9261 44.1802 33.8471 44.0396 33.7064C43.8989 33.5658 43.8199 33.375 43.8199 33.1761C43.8199 32.9772 43.8989 32.7864 44.0396 32.6457C44.1802 32.5051 44.371 32.4261 44.5699 32.4261H46.4089V28.4491C46.4084 27.9114 46.2707 27.3827 46.0089 26.9131L41.9489 19.6341C41.9142 19.572 41.8636 19.5202 41.8022 19.4842C41.7409 19.4481 41.671 19.4291 41.5999 19.4291H36.0669V32.4291H37.8529C38.0518 32.4291 38.2426 32.5081 38.3832 32.6487C38.5239 32.7894 38.6029 32.9802 38.6029 33.1791C38.6029 33.378 38.5239 33.5688 38.3832 33.7094C38.2426 33.8501 38.0518 33.9291 37.8529 33.9291H35.3169C35.118 33.9291 34.9272 33.8501 34.7866 33.7094C34.6459 33.5688 34.5669 33.378 34.5669 33.1791V18.6791C34.5669 18.4802 34.6459 18.2894 34.7866 18.1487C34.9272 18.0081 35.118 17.9291 35.3169 17.9291H41.5999C41.9382 17.9289 42.2705 18.0191 42.5623 18.1903C42.8542 18.3616 43.095 18.6076 43.2599 18.9031L47.3189 26.1831C47.7048 26.876 47.9075 27.6559 47.9079 28.4491V32.6391C47.9074 32.9802 47.7716 33.3073 47.5304 33.5485C47.2891 33.7898 46.9621 33.9255 46.6209 33.9261Z" fill="#6701BA"/>
<path d="M16.1829 33.9261H8.99194C8.79303 33.9261 8.60227 33.8471 8.46161 33.7064C8.32096 33.5658 8.24194 33.375 8.24194 33.1761V27.4081C8.24194 27.2092 8.32096 27.0184 8.46161 26.8778C8.60227 26.7371 8.79303 26.6581 8.99194 26.6581C9.19086 26.6581 9.38162 26.7371 9.52227 26.8778C9.66293 27.0184 9.74194 27.2092 9.74194 27.4081V32.4261H16.1829C16.3819 32.4261 16.5726 32.5051 16.7133 32.6457C16.8539 32.7864 16.9329 32.9772 16.9329 33.1761C16.9329 33.375 16.8539 33.5658 16.7133 33.7064C16.5726 33.8471 16.3819 33.9261 16.1829 33.9261Z" fill="#6701BA"/>
<path d="M8.99194 24.7471C8.79303 24.7471 8.60227 24.668 8.46161 24.5274C8.32096 24.3867 8.24194 24.196 8.24194 23.9971V18.9611C8.24194 18.7621 8.32096 18.5714 8.46161 18.4307C8.60227 18.2901 8.79303 18.2111 8.99194 18.2111C9.19086 18.2111 9.38162 18.2901 9.52227 18.4307C9.66293 18.5714 9.74194 18.7621 9.74194 18.9611V24.0001C9.74115 24.1985 9.66178 24.3884 9.52122 24.5285C9.38065 24.6685 9.19034 24.7471 8.99194 24.7471Z" fill="#6701BA"/>
<path d="M35.3169 33.9261H22.8999C22.701 33.9261 22.5103 33.847 22.3696 33.7064C22.229 33.5657 22.1499 33.375 22.1499 33.1761C22.1499 32.9771 22.229 32.7864 22.3696 32.6457C22.5103 32.5051 22.701 32.4261 22.8999 32.4261H34.5669V12.8051H9.74194V15.8941C9.74194 16.093 9.66293 16.2837 9.52227 16.4244C9.38162 16.565 9.19086 16.6441 8.99194 16.6441C8.79303 16.6441 8.60227 16.565 8.46161 16.4244C8.32096 16.2837 8.24194 16.093 8.24194 15.8941V12.6671C8.24247 12.3058 8.38628 11.9595 8.6418 11.7042C8.89733 11.4489 9.24371 11.3053 9.60494 11.3051H34.7049C35.066 11.3056 35.4121 11.4492 35.6674 11.7046C35.9227 11.9599 36.0664 12.306 36.0669 12.6671V33.1761C36.0669 33.375 35.9879 33.5657 35.8473 33.7064C35.7066 33.847 35.5159 33.9261 35.3169 33.9261Z" fill="#6701BA"/>
<path d="M11.957 28.1581H2.43799C2.23908 28.1581 2.04831 28.0791 1.90766 27.9384C1.76701 27.7978 1.68799 27.607 1.68799 27.4081C1.68799 27.2092 1.76701 27.0184 1.90766 26.8778C2.04831 26.7371 2.23908 26.6581 2.43799 26.6581H11.957C12.1559 26.6581 12.3467 26.7371 12.4873 26.8778C12.628 27.0184 12.707 27.2092 12.707 27.4081C12.707 27.607 12.628 27.7978 12.4873 27.9384C12.3467 28.0791 12.1559 28.1581 11.957 28.1581Z" fill="#6701BA"/>
<path d="M19.542 24.7471H6.25903C6.06012 24.7471 5.86936 24.6681 5.7287 24.5274C5.58805 24.3867 5.50903 24.196 5.50903 23.9971C5.50903 23.7982 5.58805 23.6074 5.7287 23.4667C5.86936 23.3261 6.06012 23.2471 6.25903 23.2471H19.542C19.7409 23.2471 19.9317 23.3261 20.0724 23.4667C20.213 23.6074 20.292 23.7982 20.292 23.9971C20.292 24.196 20.213 24.3867 20.0724 24.5274C19.9317 24.6681 19.7409 24.7471 19.542 24.7471Z" fill="#6701BA"/>
<path d="M5.84594 20.7871H0.658936C0.460023 20.7871 0.269258 20.7081 0.128605 20.5674C-0.0120468 20.4268 -0.0910645 20.236 -0.0910645 20.0371C-0.0910645 19.8382 -0.0120468 19.6474 0.128605 19.5068C0.269258 19.3661 0.460023 19.2871 0.658936 19.2871H5.84594C6.04485 19.2871 6.23561 19.3661 6.37627 19.5068C6.51692 19.6474 6.59594 19.8382 6.59594 20.0371C6.59594 20.236 6.51692 20.4268 6.37627 20.5674C6.23561 20.7081 6.04485 20.7871 5.84594 20.7871Z" fill="#6701BA"/>
<path d="M14.1628 16.644H5.00684C4.80792 16.644 4.61716 16.565 4.47651 16.4244C4.33585 16.2837 4.25684 16.093 4.25684 15.894C4.25684 15.6951 4.33585 15.5044 4.47651 15.3637C4.61716 15.2231 4.80792 15.144 5.00684 15.144H14.1628C14.3617 15.144 14.5525 15.2231 14.6932 15.3637C14.8338 15.5044 14.9128 15.6951 14.9128 15.894C14.9128 16.093 14.8338 16.2837 14.6932 16.4244C14.5525 16.565 14.3617 16.644 14.1628 16.644Z" fill="#6701BA"/>
</g>
<defs>
<clipPath id="clip0_22_12">
<rect width="48" height="48" fill="white"/>
</clipPath>
</defs>
</svg>
