<svg width="40" height="40" viewBox="0 0 40 40" fill="none" xmlns="http://www.w3.org/2000/svg">
<circle cx="20" cy="20" r="19.5" stroke="#82BA01"/>
<path d="M29.8055 25.1143C29.8055 25.0313 29.7225 25.0313 29.7225 24.9482C29.3904 24.2841 28.6432 23.4538 27.6469 22.5406C27.1488 22.1255 26.8997 21.7934 26.7337 21.6273C26.4846 21.2952 26.4846 21.0462 26.5676 20.7141C26.6507 20.465 26.9827 20.0499 27.5639 19.3027C27.896 18.8876 28.062 18.6385 28.3111 18.3894C29.5564 16.729 30.1376 15.6497 29.9716 15.1515L29.8886 15.0685C29.8055 14.9855 29.7225 14.9025 29.5564 14.9025C29.3904 14.8194 29.1413 14.8194 28.8923 14.9025H25.7374C25.6544 14.9025 25.6544 14.9025 25.4883 14.9025C25.4053 14.9025 25.3223 14.9025 25.3223 14.9025H25.2393H25.1562L25.0732 14.9855C24.9902 15.0685 24.9902 15.0685 24.9902 15.1515C24.6581 16.0648 24.243 16.812 23.8279 17.6422C23.5788 18.0573 23.3297 18.4725 23.0807 18.8045C22.8316 19.1366 22.6655 19.3857 22.4995 19.5517C22.3335 19.7178 22.1674 19.8008 22.0844 19.9669C22.0014 20.0499 21.8353 20.1329 21.8353 20.0499C21.7523 20.0499 21.6693 20.0499 21.6693 19.9669C21.5862 19.8838 21.5032 19.8008 21.4202 19.7178C21.3372 19.6348 21.3372 19.4687 21.2542 19.3027C21.2542 19.1366 21.2542 18.9706 21.2542 18.8876C21.2542 18.8045 21.2542 18.5555 21.2542 18.3894C21.2542 18.1404 21.2542 17.9743 21.2542 17.8913C21.2542 17.6422 21.2542 17.3101 21.2542 16.978C21.2542 16.6459 21.2542 16.3969 21.2542 16.2308C21.2542 16.0648 21.2542 15.8157 21.2542 15.6497C21.2542 15.4006 21.2542 15.2345 21.2542 15.1515C21.2542 15.0685 21.1712 14.9025 21.1712 14.8194C21.0881 14.7364 21.0051 14.6534 20.9221 14.5704C20.839 14.4873 20.673 14.4873 20.59 14.4043C20.1749 14.3213 19.6767 14.2383 19.0956 14.2383C17.7672 14.2383 16.854 14.3213 16.5219 14.4874C16.3558 14.5704 16.1898 14.6534 16.1067 14.8194C15.9407 14.9855 15.9407 15.0685 16.0237 15.0685C16.4388 15.1515 16.7709 15.3176 16.937 15.5666L17.02 15.7327C17.103 15.8157 17.103 15.9818 17.186 16.2308C17.2691 16.4799 17.2691 16.729 17.2691 17.0611C17.2691 17.5592 17.2691 18.0573 17.2691 18.3894C17.2691 18.8045 17.186 19.0536 17.186 19.3027C17.186 19.5517 17.103 19.7178 17.02 19.8008C16.937 19.9669 16.937 20.0499 16.8539 20.0499C16.8539 20.0499 16.8539 20.1329 16.7709 20.1329C16.6879 20.1329 16.6049 20.2159 16.4388 20.2159C16.3558 20.2159 16.1898 20.1329 16.1067 20.0499C15.9407 19.9669 15.7747 19.8008 15.6916 19.6348C15.5256 19.4687 15.3595 19.2196 15.1935 18.8876C15.0274 18.5555 14.7784 18.2234 14.6123 17.7252L14.4463 17.3932C14.3633 17.2271 14.1972 16.895 14.0312 16.4799C13.8651 16.0648 13.6991 15.7327 13.533 15.3176C13.45 15.1515 13.367 15.0685 13.284 14.9855H13.2009C13.2009 14.9855 13.1179 14.9025 13.0349 14.9025C12.9519 14.9025 12.8689 14.8194 12.7858 14.8194H9.797C9.46491 14.8194 9.29886 14.9025 9.21584 14.9855L9.13281 15.0685C9.13281 15.0685 9.13281 15.1515 9.13281 15.2346C9.13281 15.3176 9.13282 15.4006 9.21584 15.5666C9.63096 16.5629 10.1291 17.5592 10.6272 18.5555C11.1254 19.4687 11.6235 20.299 11.9556 20.8801C12.3707 21.4613 12.7028 22.0424 13.1179 22.5406C13.533 23.0387 13.7821 23.3708 13.8651 23.5368C14.0312 23.7029 14.1142 23.7859 14.1972 23.8689L14.4463 24.118C14.6123 24.2841 14.8614 24.5331 15.1935 24.7822C15.5256 25.0313 15.9407 25.2803 16.3558 25.5294C16.7709 25.7785 17.2691 25.9445 17.7672 26.1106C18.3484 26.2766 18.8465 26.3596 19.3446 26.2766H20.59C20.839 26.2766 21.0051 26.1936 21.1712 26.0275L21.2542 25.9445C21.2542 25.8615 21.3372 25.8615 21.3372 25.7785C21.3372 25.6954 21.3372 25.6124 21.3372 25.4464C21.3372 25.1143 21.3372 24.8652 21.4202 24.6161C21.5032 24.3671 21.5032 24.201 21.5863 24.035C21.6693 23.8689 21.7523 23.7859 21.8353 23.7029C21.9183 23.6199 22.0014 23.5368 22.0014 23.5368H22.0844C22.2504 23.4538 22.4995 23.5368 22.6656 23.7029C22.9146 23.8689 23.1637 24.118 23.3297 24.3671C23.4958 24.6161 23.7449 24.8652 24.077 25.1973C24.409 25.5294 24.6581 25.7785 24.8242 25.8615L25.0732 26.0275C25.2393 26.1106 25.4053 26.1936 25.6544 26.2766C25.9035 26.3596 26.0695 26.3596 26.2355 26.3596L29.0583 26.2766C29.3074 26.2766 29.5565 26.1936 29.7225 26.1106C29.8885 26.0275 29.9716 25.9445 29.9716 25.7785C29.9716 25.6954 29.9716 25.5294 29.9716 25.4464C29.8055 25.2803 29.8055 25.1973 29.8055 25.1143Z" fill="#82BA01"/>
</svg>
