<svg width="48" height="48" viewBox="0 0 48 48" fill="none" xmlns="http://www.w3.org/2000/svg">
<path d="M42.6987 22.0428L36.6859 15.4834C35.9851 14.719 34.9885 14.2805 33.9514 14.2805H14.0484C13.0113 14.2805 12.0147 14.719 11.3139 15.4834L5.30113 22.0428C4.29135 23.1444 4.24045 24.8498 5.18282 26.0097L22.451 47.2629C22.8317 47.7314 23.3962 48 23.9999 48C24.6035 48 25.168 47.7314 25.5487 47.2629L42.8169 26.0097C43.7594 24.8497 43.7084 23.1444 42.6987 22.0428ZM34.2829 15.7114L32.6824 20.4062C32.5571 20.7738 32.7535 21.1734 33.1211 21.2987C33.1963 21.3243 33.2728 21.3365 33.3479 21.3365C33.6405 21.3365 33.9137 21.1525 34.0134 20.8601L35.5552 16.3374C35.5874 16.3686 35.6189 16.4005 35.6492 16.4336L41.662 22.993C41.7487 23.0875 41.8207 23.191 41.881 23.2996H32.5768L25.5982 15.6867H33.9513C34.063 15.6868 34.1737 15.6954 34.2829 15.7114ZM30.6691 23.2996H17.3306L23.9999 16.0242L30.6691 23.2996ZM22.4015 15.6868L16.0649 22.5993L13.7168 15.7114C13.826 15.6955 13.9367 15.6868 14.0483 15.6868H22.4015ZM12.3505 16.4337C12.3809 16.4005 12.4124 16.3686 12.4445 16.3375L14.818 23.2997H6.11873C6.17901 23.1912 6.25101 23.0877 6.33773 22.9931L12.3505 16.4337ZM6.0306 24.7059H31.2166L23.9999 45.8751L17.592 27.0788C17.4668 26.7113 17.0673 26.5148 16.6996 26.6401C16.332 26.7655 16.1356 27.165 16.261 27.5325L22.065 44.5578L6.27417 25.1229C6.17001 24.9946 6.08976 24.8535 6.0306 24.7059ZM25.9346 44.5578L32.7023 24.7059H41.9691C41.9099 24.8535 41.8297 24.9946 41.7255 25.1228L25.9346 44.5578Z" fill="#6701BA"/>
<path d="M24 11.1771C24.3883 11.1771 24.7031 10.8623 24.7031 10.4739V0.703125C24.7031 0.314813 24.3883 0 24 0C23.6117 0 23.2969 0.314813 23.2969 0.703125V10.4739C23.2969 10.8623 23.6117 11.1771 24 11.1771Z" fill="#6701BA"/>
<path d="M16.6064 11.54C16.7296 11.7863 16.9779 11.9288 17.2359 11.9288C17.3415 11.9288 17.4488 11.9049 17.5497 11.8544C17.8971 11.6807 18.0379 11.2584 17.8642 10.9111L14.8578 4.89825C14.6842 4.55091 14.2618 4.41009 13.9145 4.58381C13.5671 4.75753 13.4263 5.17978 13.6 5.52713L16.6064 11.54Z" fill="#6701BA"/>
<path d="M30.4499 11.8544C30.5509 11.9049 30.6581 11.9288 30.7638 11.9288C31.0217 11.9288 31.27 11.7863 31.3932 11.54L34.3996 5.52713C34.5733 5.17978 34.4325 4.75753 34.0851 4.58381C33.7378 4.41009 33.3155 4.55091 33.1418 4.89825L30.1354 10.9111C29.9617 11.2584 30.1025 11.6808 30.4499 11.8544Z" fill="#6701BA"/>
</svg>
