<svg width="48" height="48" viewBox="0 0 48 48" fill="none" xmlns="http://www.w3.org/2000/svg">
<path d="M45.7973 7.34722L37.444 3.86713C36.5277 3.48547 35.4768 3.48557 34.5606 3.86722L30.5499 5.53775C30.1914 5.68719 30.0218 6.09875 30.1712 6.45725C30.3205 6.81575 30.7321 6.98544 31.0907 6.836L35.1013 5.16538C35.6737 4.92688 36.3306 4.92678 36.9034 5.16528L45.2562 8.64519C46.0687 8.9841 46.5937 9.74619 46.5937 10.5865V40.6568C46.5937 41.8261 45.5894 42.7774 44.355 42.7774H43.215C42.8266 42.7774 42.5119 43.0921 42.5119 43.4805C42.5119 43.8689 42.8266 44.1837 43.215 44.1837H44.355C46.3648 44.1837 48 42.6015 48 40.6568V10.5865C48 9.17685 47.1354 7.90541 45.7973 7.34722Z" fill="#6701BA"/>
<path d="M40.1503 42.7775H28.3359C28.8224 42.2246 29.0887 41.5231 29.0887 40.7807C29.0887 40.0398 28.8205 39.3607 28.3767 38.8342C28.6566 38.6914 28.9157 38.5046 29.1444 38.2759C29.7156 37.7047 30.03 36.9453 30.03 36.1372C30.03 35.367 29.7401 34.6635 29.2643 34.1289C29.4999 33.9955 29.7193 33.8301 29.9158 33.6334C30.4869 33.0624 30.8015 32.3029 30.8015 31.4947C30.8015 30.7267 30.5134 30.025 30.0403 29.4909C30.2798 29.3565 30.503 29.189 30.703 28.9894C31.2738 28.4174 31.588 27.6581 31.588 26.8512C31.588 25.183 30.2313 23.8259 28.5636 23.8259H25.4108V10.5865C25.4108 9.74613 25.9358 8.98404 26.7479 8.64532L28.0267 8.11282C28.3853 7.96357 28.5548 7.55201 28.4056 7.19341C28.2563 6.83491 27.8447 6.66504 27.4862 6.81457L26.2069 7.34725C24.869 7.90535 24.0045 9.17688 24.0045 10.5865V23.826H21.0667C22.0449 20.7345 21.9617 17.5081 20.82 13.7634C20.6466 13.1963 20.3016 12.7106 19.822 12.3588C19.3453 12.0091 18.7804 11.8241 18.1882 11.8241C17.4252 11.8241 16.7158 12.1288 16.1904 12.682C15.6653 13.2351 15.398 13.9593 15.4375 14.7209C15.6574 18.9487 13.7072 20.4039 11.008 22.4181C10.1194 23.0812 9.14813 23.8065 8.19356 24.6959V23.7743C8.19356 23.3859 7.87884 23.0712 7.49044 23.0712H0.703125C0.314719 23.0712 0 23.3859 0 23.7743V43.7159C0 44.1043 0.314719 44.419 0.703125 44.419H7.49063C7.87903 44.419 8.19375 44.1043 8.19375 43.7159V41.947C9.52922 42.074 10.5046 42.3402 11.4522 43.0665C12.0743 43.5433 12.8412 43.8059 13.6116 43.8059H26.012C26.5186 44.0528 27.0802 44.1837 27.6496 44.1837H40.1502C40.5386 44.1837 40.8533 43.869 40.8533 43.4806C40.8533 43.0922 40.5386 42.7775 40.1503 42.7775ZM12.3077 41.9503C10.9819 40.9343 9.56494 40.652 8.19375 40.5336V32.3235C8.19375 31.9351 7.87903 31.6203 7.49063 31.6203C7.10222 31.6203 6.7875 31.9351 6.7875 32.3235V43.0128H1.40625V24.4775H6.7875V29.2598C6.7875 29.6482 7.10222 29.9629 7.49063 29.9629C7.87903 29.9629 8.19375 29.6482 8.19375 29.2598V26.6934C9.36994 25.3954 10.6294 24.4556 11.8492 23.5453C14.5501 21.5299 17.101 19.6263 16.8422 14.6479C16.8228 14.2753 16.9536 13.921 17.2106 13.6503C17.4677 13.3795 17.8149 13.2304 18.1884 13.2304C18.4793 13.2304 18.7566 13.3211 18.9903 13.4927C19.2236 13.6638 19.3913 13.8997 19.4753 14.1743C20.6381 17.9885 20.6199 21.1976 19.4181 24.2734C19.3335 24.4898 19.3613 24.7339 19.4923 24.9258C19.6233 25.1178 19.8406 25.2325 20.0729 25.2325H28.5637C29.4561 25.2325 30.182 25.9588 30.182 26.8516C30.182 27.2833 30.0135 27.6899 29.7087 27.9954C29.4022 28.3012 28.9957 28.4697 28.5637 28.4697H25.6753C25.2869 28.4697 24.9722 28.7844 24.9722 29.1728C24.9722 29.5612 25.2869 29.8759 25.6753 29.8759H27.7772C28.6694 29.8759 29.3953 30.6022 29.3953 31.4951C29.3953 31.9276 29.2271 32.334 28.9215 32.6395C28.6161 32.945 28.2097 33.1132 27.7772 33.1132H25.6753C25.2869 33.1132 24.9722 33.4279 24.9722 33.8163C24.9722 34.2048 25.2869 34.5195 25.6753 34.5195H27.0055C27.8978 34.5195 28.6238 35.2454 28.6238 36.1376C28.6238 36.57 28.4555 36.9765 28.15 37.282C27.8438 37.5882 27.4373 37.7567 27.0055 37.7567H26.0643H24.9037C24.5153 37.7567 24.2005 38.0714 24.2005 38.4598C24.2005 38.8482 24.5153 39.1629 24.9037 39.1629H26.0643C26.9566 39.1629 27.6825 39.8888 27.6825 40.781C27.6825 41.2134 27.514 41.6203 27.2093 41.9257C26.9238 42.2106 26.4727 42.3924 26.1351 42.3984C26.1117 42.3988 13.6116 42.4001 13.6116 42.4001C13.1488 42.3996 12.6857 42.2401 12.3077 41.9503Z" fill="#6701BA"/>
<path d="M38.5399 10.8989C38.5399 9.42142 37.3378 8.21936 35.8603 8.21936C34.3828 8.21936 33.1808 9.42142 33.1808 10.8989C33.1808 12.3764 34.3828 13.5785 35.8603 13.5785C37.3378 13.5785 38.5399 12.3764 38.5399 10.8989ZM34.587 10.8989C34.587 10.1968 35.1583 9.62561 35.8603 9.62561C36.5624 9.62561 37.1337 10.1968 37.1337 10.8989C37.1337 11.601 36.5624 12.1722 35.8603 12.1722C35.1583 12.1722 34.587 11.6011 34.587 10.8989Z" fill="#6701BA"/>
<path d="M36.2996 34.8904H35.0386C34.3743 34.8904 33.834 34.35 33.834 33.6857C33.834 33.2973 33.5192 32.9826 33.1308 32.9826C32.7424 32.9826 32.4277 33.2973 32.4277 33.6857C32.4277 35.1011 33.5598 36.2561 34.9659 36.2948V37.8509C34.9659 38.2393 35.2806 38.554 35.669 38.554C36.0574 38.554 36.3721 38.2393 36.3721 37.8509V36.2948C37.7783 36.2561 38.9104 35.1011 38.9104 33.6857V32.7123C38.9104 31.8092 38.3334 31.0151 37.4745 30.7359L34.2982 29.7042C34.0205 29.6139 33.834 29.3572 33.834 29.0653V27.6715C33.834 27.132 34.2728 26.6931 34.8122 26.6931H36.526C37.0654 26.6931 37.5043 27.132 37.5043 27.6715C37.5043 28.0599 37.819 28.3746 38.2074 28.3746C38.5958 28.3746 38.9105 28.0599 38.9105 27.6715C38.9105 26.3566 37.8408 25.2869 36.526 25.2869H36.3721V23.7327C36.3721 23.3443 36.0574 23.0295 35.669 23.0295C35.2806 23.0295 34.9659 23.3443 34.9659 23.7327V25.2869H34.8121C33.4974 25.2869 32.4276 26.3565 32.4276 27.6715V29.0653C32.4276 29.9684 33.0046 30.7625 33.8636 31.0416L37.0397 32.0733C37.3175 32.1636 37.5041 32.4204 37.5041 32.7123V33.6857C37.5043 34.35 36.9638 34.8904 36.2996 34.8904Z" fill="#6701BA"/>
</svg>
