<svg width="56" height="56" viewBox="0 0 56 56" fill="none" xmlns="http://www.w3.org/2000/svg">
<circle cx="28" cy="28" r="28" fill="#F9F9F9"/>
<path d="M22 18L19 22V36C19 36.5304 19.2107 37.0391 19.5858 37.4142C19.9609 37.7893 20.4696 38 21 38H35C35.5304 38 36.0391 37.7893 36.4142 37.4142C36.7893 37.0391 37 36.5304 37 36V22L34 18H22Z" stroke="#82BA01" stroke-width="2" stroke-linecap="round" stroke-linejoin="round"/>
<path d="M19 22H37" stroke="#82BA01" stroke-width="2" stroke-linecap="round" stroke-linejoin="round"/>
<path d="M32 26C32 27.0609 31.5786 28.0783 30.8284 28.8284C30.0783 29.5786 29.0609 30 28 30C26.9391 30 25.9217 29.5786 25.1716 28.8284C24.4214 28.0783 24 27.0609 24 26" stroke="#82BA01" stroke-width="2" stroke-linecap="round" stroke-linejoin="round"/>
<circle cx="40" cy="14" r="8" fill="#6701BA"/>
<path d="M43.2988 17.1094V18H37.7148V17.2207L40.5098 14.1094C40.8535 13.7266 41.1191 13.4023 41.3066 13.1367C41.498 12.8672 41.6309 12.627 41.7051 12.416C41.7832 12.2012 41.8223 11.9824 41.8223 11.7598C41.8223 11.4785 41.7637 11.2246 41.6465 10.998C41.5332 10.7676 41.3652 10.584 41.1426 10.4473C40.9199 10.3105 40.6504 10.2422 40.334 10.2422C39.9551 10.2422 39.6387 10.3164 39.3848 10.4648C39.1348 10.6094 38.9473 10.8125 38.8223 11.0742C38.6973 11.3359 38.6348 11.6367 38.6348 11.9766H37.5508C37.5508 11.4961 37.6562 11.0566 37.8672 10.6582C38.0781 10.2598 38.3906 9.94336 38.8047 9.70898C39.2188 9.4707 39.7285 9.35156 40.334 9.35156C40.873 9.35156 41.334 9.44727 41.7168 9.63867C42.0996 9.82617 42.3926 10.0918 42.5957 10.4355C42.8027 10.7754 42.9062 11.1738 42.9062 11.6309C42.9062 11.8809 42.8633 12.1348 42.7773 12.3926C42.6953 12.6465 42.5801 12.9004 42.4316 13.1543C42.2871 13.4082 42.1172 13.6582 41.9219 13.9043C41.7305 14.1504 41.5254 14.3926 41.3066 14.6309L39.0215 17.1094H43.2988Z" fill="white"/>
</svg>
